<svg xmlns="http://www.w3.org/2000/svg" viewBox="0 0 64 64">
  <!-- Teal rounded square background -->
  <rect x="2" y="2" width="60" height="60" rx="14" fill="#0d9488"/>
  <!-- White gear: body + 6 teeth -->
  <g fill="#fff">
    <circle cx="32" cy="32" r="12"/>
    <rect x="28.5" y="12" width="7" height="10" rx="2"/>
    <rect x="28.5" y="12" width="7" height="10" rx="2" transform="rotate(60,32,32)"/>
    <rect x="28.5" y="12" width="7" height="10" rx="2" transform="rotate(120,32,32)"/>
    <rect x="28.5" y="12" width="7" height="10" rx="2" transform="rotate(180,32,32)"/>
    <rect x="28.5" y="12" width="7" height="10" rx="2" transform="rotate(240,32,32)"/>
    <rect x="28.5" y="12" width="7" height="10" rx="2" transform="rotate(300,32,32)"/>
  </g>
  <!-- Center hole -->
  <circle cx="32" cy="32" r="5" fill="#0d9488"/>
  <!-- Small water drop accent bottom-right -->
  <path d="M50 44C50 44 44 50 44 53C44 56 46.5 58 50 58C53.5 58 56 56 56 53C56 50 50 44 50 44Z" fill="#fff" opacity="0.85"/>
</svg>
